<?xml version="1.0" standalone="no"?>
<!DOCTYPE svg PUBLIC "-//W3C//DTD SVG 20010904//EN"
 "http://www.w3.org/TR/2001/REC-SVG-20010904/DTD/svg10.dtd">
<svg version="1.0" xmlns="http://www.w3.org/2000/svg"
 width="1440.000000pt" height="1440.000000pt" viewBox="0 0 1440.000000 1440.000000"
 preserveAspectRatio="xMidYMid meet">
<metadata>
Created by potrace 1.11, written by Peter Selinger 2001-2013
</metadata>
<g transform="translate(0.000000,1440.000000) scale(0.100000,-0.100000)"
fill="#000000" stroke="none">
<path d="M7944 9623 c-99 -206 -140 -293 -191 -403 -24 -52 -48 -102 -54 -110
-5 -8 -12 -22 -15 -30 -4 -8 -11 -27 -18 -42 -6 -16 -15 -28 -19 -28 -5 0 -6
-4 -3 -9 3 -4 -1 -17 -9 -27 -8 -10 -15 -27 -15 -36 0 -10 -4 -18 -10 -18 -5
0 -10 -4 -10 -9 0 -11 -41 -99 -166 -360 -46 -95 -84 -174 -84 -176 0 -2 -34
-74 -76 -161 -119 -248 -157 -329 -159 -334 -1 -5 -33 -71 -135 -285 -90 -189
-153 -320 -193 -405 -19 -41 -65 -138 -102 -215 -37 -77 -84 -176 -105 -220
-48 -103 -118 -249 -188 -395 -30 -63 -67 -142 -82 -175 -15 -33 -61 -130
-103 -216 -41 -85 -90 -189 -110 -230 -19 -41 -57 -119 -83 -174 -26 -55 -48
-102 -49 -105 -1 -3 -14 -31 -29 -63 l-29 -58 21 -52 c28 -71 259 -602 278
-638 14 -28 34 -32 34 -7 0 6 19 50 41 97 89 185 139 293 139 302 0 5 5 9 10
9 6 0 10 5 10 11 0 12 18 51 115 254 93 193 147 308 184 387 17 37 67 143 112
235 44 92 90 188 101 213 11 25 24 52 29 60 5 8 12 22 16 30 3 8 30 67 60 130
30 63 66 140 80 170 14 30 29 62 34 70 5 8 13 24 18 36 15 35 140 298 241 509
34 72 79 166 100 210 76 161 143 302 187 395 25 52 68 142 95 200 28 58 73
152 100 210 28 58 68 141 88 185 21 44 61 128 89 187 28 59 51 112 51 117 0 6
5 11 10 11 6 0 10 5 10 11 0 5 14 37 30 71 17 33 30 66 30 74 0 8 5 14 10 14
6 0 10 4 10 9 0 5 21 53 46 107 50 107 50 92 -2 209 -12 28 -50 115 -84 195
-34 80 -73 169 -86 198 -13 29 -24 54 -24 57 0 2 -13 33 -30 68 -16 36 -30 70
-30 76 0 32 -22 -3 -86 -136z"/>
<path d="M12617 9584 c-1 -1 -40 -4 -87 -8 -88 -6 -238 -29 -319 -47 -52 -12
-61 -14 -113 -29 -21 -5 -53 -14 -70 -19 -18 -4 -44 -13 -58 -19 -14 -5 -50
-20 -80 -32 -580 -232 -864 -701 -764 -1259 17 -96 106 -293 154 -341 3 -3 20
-25 39 -49 39 -50 125 -134 186 -180 22 -17 45 -35 50 -39 6 -5 24 -17 40 -28
17 -10 32 -21 35 -24 3 -3 21 -14 40 -24 19 -11 37 -22 40 -25 18 -21 327
-171 455 -221 11 -4 46 -20 78 -34 32 -14 59 -26 62 -26 2 0 16 -5 32 -12 15
-6 30 -12 33 -13 3 -1 19 -7 35 -14 17 -7 59 -24 95 -38 266 -104 536 -229
648 -300 29 -18 57 -33 62 -33 6 0 10 -4 10 -10 0 -5 4 -10 10 -10 11 0 12 -1
115 -87 109 -89 203 -207 234 -293 7 -19 17 -44 22 -55 21 -48 37 -150 37
-243 0 -191 -67 -346 -204 -471 -64 -58 -168 -131 -188 -131 -8 0 -19 -7 -26
-15 -7 -9 -15 -14 -17 -11 -3 2 -28 -6 -56 -19 -29 -14 -80 -31 -114 -40 -63
-16 -79 -20 -143 -31 -19 -4 -44 -9 -55 -11 -37 -10 -449 -12 -510 -3 -118 16
-131 19 -190 31 -33 6 -67 13 -75 14 -68 9 -298 90 -429 153 -148 69 -356 201
-441 279 -14 13 -28 23 -32 23 -8 0 -41 -35 -183 -195 -33 -37 -71 -80 -85
-95 -14 -14 -46 -50 -72 -79 l-47 -53 45 -39 c24 -21 75 -60 112 -86 37 -26
69 -51 70 -55 2 -5 7 -8 11 -8 4 0 54 -26 112 -58 128 -71 303 -149 429 -192
52 -18 104 -36 115 -41 11 -4 46 -15 77 -24 49 -14 75 -20 123 -29 6 -1 15 -4
20 -8 6 -3 28 -9 50 -12 22 -4 47 -8 55 -11 8 -2 31 -6 50 -9 19 -3 46 -8 60
-11 14 -3 48 -7 75 -11 28 -3 66 -7 85 -10 19 -2 86 -6 148 -9 62 -2 117 -7
122 -10 5 -3 11 -1 14 4 3 5 21 6 40 1 19 -4 37 -5 40 -3 3 3 38 7 78 8 85 4
192 13 228 20 14 3 44 7 67 10 23 2 61 9 85 14 24 6 54 12 68 14 259 48 590
198 795 362 121 96 315 320 315 363 0 7 3 12 8 12 4 0 13 12 19 28 7 15 22 50
35 77 12 28 23 55 25 60 43 148 45 164 47 310 1 192 -10 271 -60 425 -34 104
-135 281 -204 360 -128 147 -308 290 -477 382 -32 17 -66 38 -75 46 -10 8 -18
12 -18 8 0 -4 -13 2 -29 13 -16 12 -33 21 -37 21 -4 0 -44 18 -88 39 -103 49
-195 91 -202 91 -3 0 -24 8 -47 19 -52 23 -225 91 -232 91 -3 0 -24 9 -48 20
-23 10 -78 33 -122 50 -44 17 -89 35 -100 40 -11 5 -49 21 -85 35 -76 31 -333
155 -340 165 -3 3 -23 17 -45 30 -68 41 -127 89 -190 154 -108 112 -155 231
-150 382 3 108 16 159 62 244 36 67 161 200 189 200 7 0 14 4 14 9 0 10 104
62 184 91 170 62 381 85 616 66 47 -4 94 -9 105 -11 11 -3 31 -7 45 -9 14 -3
36 -7 50 -10 14 -3 39 -8 55 -12 47 -9 184 -54 250 -81 98 -40 278 -136 330
-176 6 -4 30 -23 55 -42 l45 -34 20 22 c11 12 63 72 114 132 52 61 102 117
110 126 9 9 27 31 41 49 14 19 37 45 53 58 15 14 27 30 27 36 0 11 -123 102
-170 126 -14 7 -27 16 -30 19 -11 14 -217 114 -313 152 -95 38 -198 75 -239
85 -34 8 -54 13 -110 28 -32 9 -70 18 -85 21 -16 3 -37 7 -48 9 -18 3 -98 16
-135 21 -87 13 -170 18 -303 19 -86 1 -158 1 -160 0z"/>
<path d="M4 9491 c-2 -2 -4 -1038 -4 -2302 l0 -2299 350 0 c272 0 350 3 352
13 0 6 2 392 4 857 1 465 2 853 3 862 1 15 25 17 269 17 147 0 269 0 272 1 3
1 57 3 120 5 63 2 142 6 175 9 99 10 159 17 185 21 14 2 45 7 70 10 75 10 195
33 260 50 164 43 292 85 302 100 4 5 8 7 8 3 0 -12 178 70 260 120 19 12 44
26 56 31 11 5 27 15 35 23 8 7 33 28 57 45 277 201 455 500 509 853 15 104 9
407 -11 490 -23 97 -27 113 -30 127 -1 7 -5 16 -9 19 -4 4 -7 13 -7 21 0 22
-70 163 -115 233 -40 61 -56 81 -132 162 -70 77 -217 184 -328 238 -38 19 -72
38 -75 41 -3 3 -43 20 -90 38 -47 18 -101 39 -120 46 -19 8 -53 19 -75 25 -84
24 -191 52 -212 56 -44 8 -68 13 -120 23 -29 6 -74 13 -100 16 -26 4 -59 8
-73 11 -24 3 -59 7 -185 20 -33 3 -100 8 -150 11 -109 6 -1445 10 -1451 4z
m1516 -525 c88 -6 172 -16 189 -22 8 -3 35 -7 60 -10 25 -3 49 -8 53 -10 5 -3
21 -7 36 -10 15 -3 34 -7 42 -11 8 -3 21 -7 27 -9 61 -12 265 -107 304 -140 8
-8 18 -14 21 -14 14 0 125 -105 166 -156 62 -77 122 -217 138 -324 11 -71 12
-194 1 -207 -6 -9 -6 -13 2 -13 7 0 10 -3 8 -7 -3 -5 -8 -24 -11 -43 -5 -31
-11 -59 -20 -95 -19 -80 -61 -171 -116 -251 -57 -83 -94 -119 -237 -234 -6 -5
-54 -32 -105 -59 -103 -55 -232 -103 -353 -131 -91 -22 -126 -28 -257 -45
-148 -20 -755 -28 -761 -10 -1 5 -2 412 -2 903 1 637 4 895 12 900 12 8 701 6
803 -2z"/>
</g>
</svg>
